<svg width="48" height="48" viewBox="0 0 48 48" fill="none" xmlns="http://www.w3.org/2000/svg">
<g clip-path="url(#clip0_103_2)">
<path d="M39.1111 0H8.88889C3.97969 0 0 3.97969 0 8.88889V39.1111C0 44.0203 3.97969 48 8.88889 48H39.1111C44.0203 48 48 44.0203 48 39.1111V8.88889C48 3.97969 44.0203 0 39.1111 0Z" fill="white"/>
<path d="M7.032 30L11.4 18.8H14.536L18.84 30H15.864L14.936 27.328H10.84L9.896 30H7.032ZM11.592 25.2H14.2L12.904 21.488L11.592 25.2ZM24.9205 30.176C24.0885 30.176 23.3152 30.032 22.6005 29.744C21.8965 29.4453 21.2725 29.0347 20.7285 28.512C20.1952 27.9787 19.7792 27.3653 19.4805 26.672C19.1818 25.968 19.0325 25.2107 19.0325 24.4C19.0325 23.5893 19.1818 22.8373 19.4805 22.144C19.7792 21.44 20.1898 20.8267 20.7125 20.304C21.2458 19.7707 21.8645 19.36 22.5685 19.072C23.2832 18.7733 24.0512 18.624 24.8725 18.624C25.8112 18.624 26.6965 18.816 27.5285 19.2C28.3712 19.5733 29.0538 20.1067 29.5765 20.8L27.6405 22.48C27.2885 22.0107 26.8778 21.6587 26.4085 21.424C25.9392 21.1893 25.4272 21.072 24.8725 21.072C24.4458 21.072 24.0458 21.1573 23.6725 21.328C23.3098 21.488 22.9952 21.7227 22.7285 22.032C22.4618 22.3307 22.2538 22.6827 22.1045 23.088C21.9552 23.4827 21.8805 23.92 21.8805 24.4C21.8805 24.88 21.9552 25.328 22.1045 25.744C22.2645 26.1493 22.4832 26.5013 22.7605 26.8C23.0378 27.0987 23.3632 27.3333 23.7365 27.504C24.1098 27.6747 24.5205 27.76 24.9685 27.76C25.3952 27.76 25.7792 27.68 26.1205 27.52C26.4725 27.36 26.7712 27.1413 27.0165 26.864C27.2618 26.576 27.4325 26.2507 27.5285 25.888H24.7285V23.568H30.4885V24.352C30.4885 25.1947 30.3498 25.9733 30.0725 26.688C29.8058 27.392 29.4218 28.0053 28.9205 28.528C28.4192 29.0507 27.8272 29.456 27.1445 29.744C26.4725 30.032 25.7312 30.176 24.9205 30.176ZM36.3551 30.176C35.4698 30.176 34.6271 30.032 33.8271 29.744C33.0271 29.456 32.2538 29.0347 31.5071 28.48L32.9151 26.448C33.6938 26.992 34.3551 27.376 34.8991 27.6C35.4431 27.824 35.9925 27.936 36.5471 27.936C36.9418 27.936 37.2778 27.888 37.5551 27.792C37.8431 27.6853 38.0618 27.5467 38.2111 27.376C38.3711 27.1947 38.4511 26.9867 38.4511 26.752C38.4511 26.4213 38.3391 26.1707 38.1151 26C37.9018 25.8187 37.5231 25.68 36.9791 25.584L34.5951 25.168C33.7098 25.0187 33.0271 24.6773 32.5471 24.144C32.0778 23.6107 31.8431 22.9493 31.8431 22.16C31.8431 21.4347 32.0191 20.8107 32.3711 20.288C32.7231 19.7547 33.2298 19.344 33.8911 19.056C34.5631 18.768 35.3631 18.624 36.2911 18.624C37.1551 18.624 37.9925 18.7573 38.8031 19.024C39.6138 19.28 40.3071 19.6373 40.8831 20.096L39.4911 22.096C38.9471 21.68 38.4031 21.3707 37.8591 21.168C37.3151 20.9653 36.7445 20.864 36.1471 20.864C35.7845 20.864 35.4751 20.912 35.2191 21.008C34.9631 21.0933 34.7658 21.216 34.6271 21.376C34.4991 21.536 34.4351 21.7173 34.4351 21.92C34.4351 22.208 34.5311 22.432 34.7231 22.592C34.9258 22.7413 35.2511 22.8587 35.6991 22.944L37.9391 23.328C38.9845 23.4987 39.7791 23.856 40.3231 24.4C40.8671 24.944 41.1391 25.6427 41.1391 26.496C41.1391 27.2213 40.9418 27.8613 40.5471 28.416C40.1631 28.9707 39.6138 29.4027 38.8991 29.712C38.1845 30.0213 37.3365 30.176 36.3551 30.176Z" fill="url(#paint0_linear_103_2)"/>
</g>
<defs>
<linearGradient id="paint0_linear_103_2" x1="-9.9697" y1="48.125" x2="46.5221" y2="15.5182" gradientUnits="userSpaceOnUse">
<stop offset="0.284062" stop-color="#989FFF"/>
<stop offset="1" stop-color="#29A2FF"/>
</linearGradient>
<clipPath id="clip0_103_2">
<rect width="48" height="48" fill="white"/>
</clipPath>
</defs>
</svg>
